<svg width="3000" height="1200" viewBox="0 0 3000 1200" fill="none" xmlns="http://www.w3.org/2000/svg">
<rect width="3000" height="1200" fill="white"/>
<path d="M1071.87 613.499C1071.87 887.708 849.607 1110 575.434 1110C301.259 1110 79 887.708 79 613.499C79 339.288 301.259 117 575.434 117C849.607 117 1071.87 339.288 1071.87 613.499Z" fill="black"/>
<path d="M1012.31 627.706C1012.31 599.731 989.632 577.053 961.661 577.053C933.686 577.053 911.013 599.731 911.013 627.706C911.013 655.682 933.686 678.362 961.661 678.362C989.632 678.362 1012.31 655.682 1012.31 627.706Z" fill="white"/>
<path d="M936.53 629.866H840.42L784.446 500.608L708.022 720.679L612.689 500.48" stroke="white" stroke-width="24" stroke-linecap="round" stroke-linejoin="round"/>
<path d="M990.232 627.708C990.232 611.928 977.437 599.138 961.662 599.138C945.882 599.138 933.092 611.928 933.092 627.708C933.092 643.487 945.882 656.281 961.662 656.281C977.437 656.281 990.232 643.487 990.232 627.708Z" fill="black"/>
<path d="M136.785 593.58C136.785 621.554 159.463 644.233 187.433 644.233C215.408 644.233 238.082 621.554 238.082 593.58C238.082 565.603 215.408 542.923 187.433 542.923C159.463 542.923 136.785 565.603 136.785 593.58Z" fill="white"/>
<path d="M212.566 591.418H308.674L364.648 720.679L441.072 500.608L536.187 720.679" stroke="white" stroke-width="24" stroke-linecap="round" stroke-linejoin="round"/>
<path d="M158.864 593.578C158.864 609.358 171.658 622.15 187.434 622.15C203.214 622.15 216.004 609.358 216.004 593.578C216.004 577.798 203.214 565.006 187.434 565.006C171.658 565.006 158.864 577.798 158.864 593.578Z" fill="black"/>
<path d="M784.446 500.607L708.022 720.678" stroke="white" stroke-width="13" stroke-linecap="round" stroke-linejoin="round"/>
<path d="M612.69 500.48L536.186 720.678" stroke="white" stroke-width="24" stroke-linecap="round" stroke-linejoin="round"/>
<path d="M1320.9 712H1282.8L1198.8 536.5C1200 550.3 1200.9 563.1 1201.5 574.9C1202.3 586.5 1202.7 600.6 1202.7 617.2V712H1176V505.3H1213.2L1298.1 681.1C1297.5 675.9 1296.7 666.8 1295.7 653.8C1294.7 640.8 1294.2 628.9 1294.2 618.1V505.3H1320.9V712ZM1514.29 505.3L1447.69 632.5V712H1418.89V632.8L1352.29 505.3H1383.79L1434.19 607.6L1484.59 505.3H1514.29ZM1608.65 501.7C1621.05 501.7 1631.45 503.3 1639.85 506.5C1648.45 509.7 1657.15 514.9 1665.95 522.1L1650.35 540.4C1637.75 530.2 1624.45 525.1 1610.45 525.1C1593.25 525.1 1579.35 531.7 1568.75 544.9C1558.35 558.1 1553.15 579.3 1553.15 608.5C1553.15 636.9 1558.35 657.9 1568.75 671.5C1579.15 684.9 1592.95 691.6 1610.15 691.6C1618.95 691.6 1626.65 690.1 1633.25 687.1C1639.85 684.1 1646.85 679.9 1654.25 674.5L1668.35 692.5C1661.95 699.1 1653.75 704.6 1643.75 709C1633.75 713.4 1622.25 715.6 1609.25 715.6C1592.45 715.6 1577.45 711.5 1564.25 703.3C1551.25 694.9 1541.05 682.7 1533.65 666.7C1526.45 650.5 1522.85 631.1 1522.85 608.5C1522.85 585.9 1526.65 566.6 1534.25 550.6C1541.85 534.4 1552.15 522.2 1565.15 514C1578.15 505.8 1592.65 501.7 1608.65 501.7Z" fill="black"/>
<path d="M1779.1 632.2H1763.5V712H1715.5V504.1H1776.4C1803.6 504.1 1823.9 509.4 1837.3 520C1850.7 530.4 1857.4 546.1 1857.4 567.1C1857.4 593.7 1845.7 612.4 1822.3 623.2L1869.4 712H1816.9L1779.1 632.2ZM1763.5 598.9H1778.2C1788.6 598.9 1796.2 596.4 1801 591.4C1805.8 586.2 1808.2 578.1 1808.2 567.1C1808.2 557.1 1805.6 549.8 1800.4 545.2C1795.2 540.4 1787 538 1775.8 538H1763.5V598.9ZM2001.56 504.1L1996.46 538.3H1931.96V589.6H1988.36V623.2H1931.96V677.2H2000.96V712H1883.96V504.1H2001.56ZM2085.22 499C2099.22 499 2111.52 501.3 2122.12 505.9C2132.92 510.3 2142.72 516.9 2151.52 525.7L2129.62 550.9C2116.62 539.7 2103.32 534.1 2089.72 534.1C2082.12 534.1 2076.12 536 2071.72 539.8C2067.32 543.6 2065.12 548.8 2065.12 555.4C2065.12 559.8 2066.12 563.5 2068.12 566.5C2070.12 569.5 2073.62 572.4 2078.62 575.2C2083.62 578 2091.02 581.2 2100.82 584.8C2113.62 589.6 2123.92 594.8 2131.72 600.4C2139.72 605.8 2145.82 612.6 2150.02 620.8C2154.22 629 2156.32 639.2 2156.32 651.4C2156.32 664.2 2153.22 675.6 2147.02 685.6C2141.02 695.4 2132.22 703.1 2120.62 708.7C2109.22 714.3 2095.82 717.1 2080.42 717.1C2051.42 717.1 2027.32 707.3 2008.12 687.7L2031.52 661.6C2038.92 668 2046.32 672.9 2053.72 676.3C2061.32 679.7 2069.32 681.4 2077.72 681.4C2086.92 681.4 2094.02 679 2099.02 674.2C2104.02 669.4 2106.52 663 2106.52 655C2106.52 647.4 2104.22 641.3 2099.62 636.7C2095.02 632.1 2086.32 627.5 2073.52 622.9C2052.72 615.1 2037.92 606.3 2029.12 596.5C2020.32 586.7 2015.92 574.2 2015.92 559C2015.92 547.2 2018.92 536.8 2024.92 527.8C2030.92 518.6 2039.12 511.5 2049.52 506.5C2060.12 501.5 2072.02 499 2085.22 499ZM2226.68 504.1V712H2178.68V504.1H2226.68ZM2321.35 499C2335.35 499 2347.65 501.3 2358.25 505.9C2369.05 510.3 2378.85 516.9 2387.65 525.7L2365.75 550.9C2352.75 539.7 2339.45 534.1 2325.85 534.1C2318.25 534.1 2312.25 536 2307.85 539.8C2303.45 543.6 2301.25 548.8 2301.25 555.4C2301.25 559.8 2302.25 563.5 2304.25 566.5C2306.25 569.5 2309.75 572.4 2314.75 575.2C2319.75 578 2327.15 581.2 2336.95 584.8C2349.75 589.6 2360.05 594.8 2367.85 600.4C2375.85 605.8 2381.95 612.6 2386.15 620.8C2390.35 629 2392.45 639.2 2392.45 651.4C2392.45 664.2 2389.35 675.6 2383.15 685.6C2377.15 695.4 2368.35 703.1 2356.75 708.7C2345.35 714.3 2331.95 717.1 2316.55 717.1C2287.55 717.1 2263.45 707.3 2244.25 687.7L2267.65 661.6C2275.05 668 2282.45 672.9 2289.85 676.3C2297.45 679.7 2305.45 681.4 2313.85 681.4C2323.05 681.4 2330.15 679 2335.15 674.2C2340.15 669.4 2342.65 663 2342.65 655C2342.65 647.4 2340.35 641.3 2335.75 636.7C2331.15 632.1 2322.45 627.5 2309.65 622.9C2288.85 615.1 2274.05 606.3 2265.25 596.5C2256.45 586.7 2252.05 574.2 2252.05 559C2252.05 547.2 2255.05 536.8 2261.05 527.8C2267.05 518.6 2275.25 511.5 2285.65 506.5C2296.25 501.5 2308.15 499 2321.35 499ZM2539.17 504.1L2534.07 540.7H2489.37V712H2441.37V540.7H2393.97V504.1H2539.17ZM2622.89 499C2650.29 499 2671.39 508.3 2686.19 526.9C2700.99 545.3 2708.39 572.3 2708.39 607.9C2708.39 643.1 2700.89 670.1 2685.89 688.9C2671.09 707.7 2650.09 717.1 2622.89 717.1C2595.69 717.1 2574.59 707.8 2559.59 689.2C2544.79 670.6 2537.39 643.5 2537.39 607.9C2537.39 572.9 2544.79 546 2559.59 527.2C2574.59 508.4 2595.69 499 2622.89 499ZM2622.89 534.1C2610.69 534.1 2601.69 539.8 2595.89 551.2C2590.29 562.6 2587.49 581.5 2587.49 607.9C2587.49 634.7 2590.39 653.8 2596.19 665.2C2601.99 676.4 2610.89 682 2622.89 682C2635.09 682 2643.99 676.4 2649.59 665.2C2655.39 653.8 2658.29 634.7 2658.29 607.9C2658.29 581.5 2655.39 562.6 2649.59 551.2C2643.99 539.8 2635.09 534.1 2622.89 534.1ZM2797.46 632.2H2781.86V712H2733.86V504.1H2794.76C2821.96 504.1 2842.26 509.4 2855.66 520C2869.06 530.4 2875.76 546.1 2875.76 567.1C2875.76 593.7 2864.06 612.4 2840.66 623.2L2887.76 712H2835.26L2797.46 632.2ZM2781.86 598.9H2796.56C2806.96 598.9 2814.56 596.4 2819.36 591.4C2824.16 586.2 2826.56 578.1 2826.56 567.1C2826.56 557.1 2823.96 549.8 2818.76 545.2C2813.56 540.4 2805.36 538 2794.16 538H2781.86V598.9Z" fill="black"/>
</svg>
